<svg xmlns="http://www.w3.org/2000/svg" viewBox="-4127 2891 15 12.507"><path d="M6.492,1.986A.5.5,0,0,0,6,2.493V3.5a2.51,2.51,0,0,0-.789.99H6.416a.5.5,0,0,0,.163,0H8.416a.5.5,0,0,0,.163,0h1.21A2.51,2.51,0,0,0,9,3.5V2.493a.5.5,0,1,0-1,0V3.05a2.235,2.235,0,0,0-1,0V2.493a.5.5,0,0,0-.508-.507ZM4.908,5.493a1.013,1.013,0,0,0-.828.432A6.227,6.227,0,0,0,3,9.493c0,3.038,2.015,5,4.5,5s4.5-1.963,4.5-5a6.227,6.227,0,0,0-1.08-3.568,1.013,1.013,0,0,0-.828-.432ZM1.57,5.5a.5.5,0,0,0-.328.924l1.146.688a7.071,7.071,0,0,1,.386-.935l-1.017-.61A.5.5,0,0,0,1.57,5.5Zm11.859,0a.5.5,0,0,0-.188.066l-1.018.61a7.008,7.008,0,0,1,.387.935l1.146-.687A.5.5,0,0,0,13.43,5.5ZM.5,8.993a.5.5,0,0,0,0,1H2.021C2.01,9.828,2,9.663,2,9.493s.008-.334.019-.5Zm12.481,0c.011.166.019.333.019.5s-.01.335-.021.5H14.5a.5.5,0,0,0,0-1ZM2.4,11.869l-1.16.7a.5.5,0,0,0,.516.857l1.067-.642A5.944,5.944,0,0,1,2.4,11.869Zm10.2,0a6,6,0,0,1-.423.912l1.068.642a.5.5,0,0,0,.515-.858Z" transform="translate(-4127 2889.014)"/></svg>