<svg xmlns="http://www.w3.org/2000/svg" viewBox="-4421 3042 11.539 15"><path d="M9.615,2a.577.577,0,0,0-.577.577C9.038,5.494,5,7.769,5,11.808c0,3.068,3.325,5.051,4.5,5.18a.577.577,0,0,0,.483-1.012h0a4.338,4.338,0,0,1-1.518-2.789,2.836,2.836,0,0,1,1.731-2.532c-.987,2.792,2.247,3.13,2.9,5.894h0a.575.575,0,0,0,.9.341l.03-.024a6.139,6.139,0,0,0,2.516-5.058,14.676,14.676,0,0,0-1.192-4.822V6.98a.576.576,0,0,0-1.1.107s0,0,0,0a3.442,3.442,0,0,1-1.164,1.833c0-2.718-1.962-5.526-3-6.688A.581.581,0,0,0,9.615,2Z" transform="translate(-4426 3040)"/></svg>