<svg xmlns="http://www.w3.org/2000/svg" viewBox="-3536 2738.074 15 14.852"><path d="M.862.148.148.862,14.286,15,15,14.286l-3.177-3.178h.3a1.517,1.517,0,0,0,1.515-1.515V5.049a1.517,1.517,0,0,0-1.515-1.515H4.249Zm.66,3.477A1.513,1.513,0,0,0,.5,5.049V9.594A1.517,1.517,0,0,0,2.02,11.108H9L8,10.1H2.02a.506.506,0,0,1-.5-.5V5.049a.506.506,0,0,1,.5-.5h.421Zm3.737.919h6.86a.506.506,0,0,1,.5.5V9.594a.506.506,0,0,1-.5.5H10.813L9.8,9.089h1.811V5.554H6.268ZM2.525,5.554V9.089H6.985L3.451,5.554Zm11.613.5V8.584h.5a.505.505,0,0,0,.5-.5V6.564a.505.505,0,0,0-.5-.5Z" transform="translate(-3536.148 2737.926)"/></svg>