<svg xmlns="http://www.w3.org/2000/svg" viewBox="-4127 2966 15 15"><path d="M17.4,2a.6.6,0,1,0,.6.6A.6.6,0,0,0,17.4,2Zm-6,1.2a1.2,1.2,0,0,0-.848.352l-7.2,7.2a1.2,1.2,0,0,0,0,1.7l4.2,4.2a1.2,1.2,0,0,0,1.7,0l7.2-7.2a1.2,1.2,0,0,0,0-1.7l-4.2-4.2A1.2,1.2,0,0,0,11.4,3.2Zm4.2.6a.6.6,0,1,0,.6.6A.6.6,0,0,0,15.6,3.8ZM11.7,6.2A2.1,2.1,0,1,1,9.6,8.3,2.1,2.1,0,0,1,11.7,6.2Zm0,1.2a.9.9,0,1,0,.9.9.9.9,0,0,0-.9-.9ZM7.8,9.8a.6.6,0,1,1-.6.6A.6.6,0,0,1,7.8,9.8ZM6,11.6a.6.6,0,1,1-.6.6A.6.6,0,0,1,6,11.6Zm3.6,0a.6.6,0,1,1-.6.6A.6.6,0,0,1,9.6,11.6ZM7.8,13.4a.6.6,0,1,1-.6.6A.6.6,0,0,1,7.8,13.4Z" transform="translate(-4130 2964)"/></svg>