<svg xmlns="http://www.w3.org/2000/svg" viewBox="-4127 2814 15 15"><path d="M14.318,2.727a.682.682,0,0,0-.682.682V17.045a.682.682,0,0,0,.682.682h2.727a.682.682,0,0,0,.682-.682V3.409a.682.682,0,0,0-.682-.682ZM15,4.091h1.364V16.364H15ZM8.864,6.818a.682.682,0,0,0-.682.682v9.546a.682.682,0,0,0,.682.682h2.727a.682.682,0,0,0,.682-.682V7.5a.682.682,0,0,0-.682-.682Zm.682,1.364h1.364v8.182H9.545ZM3.409,10.909a.682.682,0,0,0-.682.682v5.455a.682.682,0,0,0,.682.682H6.136a.682.682,0,0,0,.682-.682V11.591a.682.682,0,0,0-.682-.682Zm.682,1.364H5.455v4.091H4.091Z" transform="translate(-4129.727 2811.273)"/></svg>