<svg xmlns="http://www.w3.org/2000/svg" viewBox="-3832 2814 15 15"><path d="M4.773,2.727A2.045,2.045,0,1,0,6.818,4.773,2.045,2.045,0,0,0,4.773,2.727Zm5.455,0a2.045,2.045,0,1,0,2.045,2.045,2.045,2.045,0,0,0-2.045-2.045Zm5.455,0a2.045,2.045,0,1,0,2.045,2.045,2.045,2.045,0,0,0-2.045-2.045ZM4.773,8.182a2.045,2.045,0,1,0,2.045,2.045A2.045,2.045,0,0,0,4.773,8.182Zm5.455,0a2.045,2.045,0,1,0,2.045,2.045A2.045,2.045,0,0,0,10.227,8.182Zm5.455,0a2.045,2.045,0,1,0,2.045,2.045,2.045,2.045,0,0,0-2.045-2.045ZM4.773,13.636a2.045,2.045,0,1,0,2.045,2.045A2.045,2.045,0,0,0,4.773,13.636Zm5.455,0a2.045,2.045,0,1,0,2.045,2.045A2.045,2.045,0,0,0,10.227,13.636Zm5.455,0a2.045,2.045,0,1,0,2.045,2.045A2.045,2.045,0,0,0,15.682,13.636Z" transform="translate(-3834.727 2811.273)"/></svg>