<svg xmlns="http://www.w3.org/2000/svg" viewBox="-3534.661 2814 12.321 15"><path d="M6.964.536a3.21,3.21,0,0,0-2.143,5.6V3.75a2.143,2.143,0,1,1,4.286,0V6.14A3.21,3.21,0,0,0,6.964.536ZM6.9,2.681a1.071,1.071,0,0,0-1,1.069v8.036c-1.367-.7-1.926-1.071-3.1-1.071-.536,0-1.182.237-1.182.842v.229l2.679,1.607,1.8,1.439a3.214,3.214,0,0,0,2.008.7h3.693a2.143,2.143,0,0,0,2.143-2.143V9.375a.8.8,0,0,0-.754-.8,1,1,0,0,0-.514.1.421.421,0,0,1-.545-.168.963.963,0,0,0-.865-.471,1.169,1.169,0,0,0-.629.172.388.388,0,0,1-.541-.162A1.039,1.039,0,0,0,9.107,7.5a1.161,1.161,0,0,0-.739.241.209.209,0,0,1-.333-.172V3.808A1.071,1.071,0,0,0,6.9,2.681Z" transform="translate(-3536.268 2813.464)"/></svg>