<svg xmlns="http://www.w3.org/2000/svg" viewBox="-4423 2738 15 15"><path d="M4.038,1.154a.577.577,0,1,0,.577.577A.577.577,0,0,0,4.038,1.154Zm2.308,0a.577.577,0,1,0,.577.577A.577.577,0,0,0,6.346,1.154Zm2.308,0a.577.577,0,1,0,.577.577A.577.577,0,0,0,8.654,1.154Zm2.308,0a.577.577,0,1,0,.577.577A.577.577,0,0,0,10.962,1.154Zm2.308,0a.577.577,0,1,0,.577.577A.577.577,0,0,0,13.269,1.154ZM2.308,3.462A1.154,1.154,0,0,0,1.154,4.615v8.077a1.154,1.154,0,0,0,1.154,1.154H15a1.154,1.154,0,0,0,1.154-1.154V4.615A1.154,1.154,0,0,0,15,3.462Zm6.2,3.364A1.462,1.462,0,0,1,10.07,8.193H9.222a.693.693,0,0,0-.711-.632c-.483,0-.779.413-.779,1.088s.3,1.1.781,1.1a.69.69,0,0,0,.713-.617h.847a1.441,1.441,0,0,1-1.563,1.354,1.628,1.628,0,0,1-1.678-1.83A1.625,1.625,0,0,1,8.511,6.825Zm3.028.1h1.452a1.508,1.508,0,0,1,1.618,1.7c0,1.136-.578,1.765-1.618,1.765H11.538Zm-8.077,0h.88V9.658h1.47v.727H3.462Zm8.957.705V9.676h.415c.571,0,.88-.355.88-1.04,0-.644-.326-1.007-.88-1.007ZM4.038,15a.577.577,0,1,0,.577.577A.577.577,0,0,0,4.038,15Zm2.308,0a.577.577,0,1,0,.577.577A.577.577,0,0,0,6.346,15Zm2.308,0a.577.577,0,1,0,.577.577A.577.577,0,0,0,8.654,15Zm2.308,0a.577.577,0,1,0,.577.577A.577.577,0,0,0,10.962,15Zm2.308,0a.577.577,0,1,0,.577.577A.577.577,0,0,0,13.269,15Z" transform="translate(-4424.154 2736.846)"/></svg>