<svg xmlns="http://www.w3.org/2000/svg" viewBox="-3832 2967 15 12.222"><path d="M9.222,4a.556.556,0,0,0-.4.17L8.8,4.2,5.333,7.889v4.444l3.488,3.719a.556.556,0,0,0,.956-.385V4.556A.556.556,0,0,0,9.222,4Zm6.667.556a.556.556,0,1,0,.556.556A.556.556,0,0,0,15.889,4.556ZM13.667,5.667a.556.556,0,1,0,.556.556A.556.556,0,0,0,13.667,5.667ZM11.444,6.778A.556.556,0,1,0,12,7.333.556.556,0,0,0,11.444,6.778ZM3.111,7.889A1.111,1.111,0,0,0,2,9v2.222a1.111,1.111,0,0,0,1.111,1.111H4.222V7.889ZM12,9.556a.556.556,0,1,0,.556.556A.556.556,0,0,0,12,9.556Zm2.222,0a.556.556,0,1,0,.556.556A.556.556,0,0,0,14.222,9.556Zm2.222,0a.556.556,0,1,0,.556.556A.556.556,0,0,0,16.444,9.556Zm-5,2.778a.556.556,0,1,0,.556.556A.556.556,0,0,0,11.444,12.333Zm2.222,1.111a.556.556,0,1,0,.556.556A.556.556,0,0,0,13.667,13.444Zm2.222,1.111a.556.556,0,1,0,.556.556A.556.556,0,0,0,15.889,14.556Z" transform="translate(-3834 2963)"/></svg>