<?xml version="1.0" standalone="no"?>
<!DOCTYPE svg PUBLIC "-//W3C//DTD SVG 20010904//EN"
 "http://www.w3.org/TR/2001/REC-SVG-20010904/DTD/svg10.dtd">
<svg version="1.0" xmlns="http://www.w3.org/2000/svg"
 width="300.000000pt" height="300.000000pt" viewBox="0 0 300.000000 300.000000"
 preserveAspectRatio="xMidYMid meet">
<metadata>
Created by potrace 1.11, written by Peter Selinger 2001-2013
</metadata>
<g transform="translate(0.000000,300.000000) scale(0.100000,-0.100000)"
fill="#000000" stroke="none">
<path d="M175 2748 c-55 -19 -109 -63 -140 -112 l-30 -49 0 -1081 0 -1081 27
-45 c33 -57 70 -89 129 -111 44 -17 97 -18 689 -19 610 0 642 1 635 17 -21 54
-74 289 -80 353 -4 41 -8 76 -9 76 0 1 -26 5 -57 8 -60 7 -71 9 -159 27 -155
32 -385 130 -416 177 -22 33 -22 104 0 136 20 31 68 57 104 58 15 0 67 -18
115 -41 83 -38 187 -75 246 -86 14 -3 42 -8 61 -12 19 -4 51 -7 70 -7 28 -1
35 3 36 19 4 69 16 186 24 220 5 22 11 51 13 65 3 14 8 37 12 53 l7 27 -162 0
-162 0 5 148 c3 81 8 165 12 187 34 202 156 597 279 907 36 92 66 170 66 173
0 10 -1284 4 -1315 -7z m739 -570 c48 -21 60 -54 61 -163 1 -55 -2 -112 -8
-128 -23 -69 -112 -89 -169 -38 l-32 29 -3 113 c-3 101 -1 118 17 147 30 49
82 64 134 40z"/>
<path d="M1756 2732 c-24 -47 -191 -468 -200 -507 -2 -5 -6 -17 -9 -25 -45
-109 -140 -455 -152 -552 l-7 -58 205 0 204 0 -37 -97 c-43 -115 -75 -231 -90
-328 -6 -38 -13 -81 -15 -95 -4 -25 -8 -99 -6 -111 1 -5 60 2 116 15 67 14
153 44 240 83 141 63 150 65 196 47 71 -29 100 -115 60 -180 -38 -62 -278
-161 -501 -205 l-111 -23 6 -55 c3 -31 8 -63 10 -71 2 -8 6 -26 9 -40 6 -41
26 -110 49 -180 22 -67 24 -73 26 -90 1 -7 175 -10 520 -10 585 1 578 0 654
74 82 79 77 6 77 1181 0 1174 5 1100 -76 1180 -77 75 -69 74 -644 75 l-509 0
-15 -28z m477 -582 c15 -17 27 -38 28 -48 6 -99 3 -192 -7 -218 -17 -41 -54
-64 -103 -64 -32 0 -44 6 -70 35 -30 35 -31 38 -31 140 0 120 8 148 50 174 45
27 98 20 133 -19z"/>
</g>
</svg>
