<svg xmlns="http://www.w3.org/2000/svg" viewBox="-686 -10798 32 32"><path d="M-654.63-10793.74a6.8 6.8 0 0 0-2.05-2.69 6.692 6.692 0 0 0-2.25-1.17 14.188 14.188 0 0 0-3.87-.4h-14.4a13.764 13.764 0 0 0-3.87.41 6.782 6.782 0 0 0-4.3 3.86 12.638 12.638 0 0 0-.63 4.53v14.4a12.717 12.717 0 0 0 .63 4.54 6.8 6.8 0 0 0 2.05 2.69 6.692 6.692 0 0 0 2.25 1.17 14.188 14.188 0 0 0 3.87.4h14.4a13.764 13.764 0 0 0 3.87-.41 6.782 6.782 0 0 0 4.3-3.86 12.469 12.469 0 0 0 .63-4.54v-14.39a12.717 12.717 0 0 0-.63-4.54zm-21.23 7.72a2.137 2.137 0 0 1 1.44-.74h.07l.01.07a2.229 2.229 0 0 1-.5 1.56 1.874 1.874 0 0 1-1.34.69.375.375 0 0 1-.11-.01h-.06l-.01-.06a2.022 2.022 0 0 1 .5-1.51zm3.46 6.25a5.2 5.2 0 0 1-.65 1.33c-.37.55-.8 1.17-1.5 1.18a1.761 1.761 0 0 1-.75-.18 1.871 1.871 0 0 0-.79-.19 1.922 1.922 0 0 0-.84.2 1.754 1.754 0 0 1-.7.18h-.04c-.63 0-1.09-.6-1.51-1.22-.89-1.28-1.4-3.4-.59-4.79a2.354 2.354 0 0 1 2-1.21 2.721 2.721 0 0 1 1 .24 1.625 1.625 0 0 0 .55.16 1.6 1.6 0 0 0 .53-.16 2.935 2.935 0 0 1 1.27-.28 2.264 2.264 0 0 1 1.77.96l.04.06-.05.04-.02.02a2.045 2.045 0 0 0-.96 1.72 2.022 2.022 0 0 0 1.2 1.83c.02.01.03.01.04.02l.03.03zm5.37-3.47h-1.34v3.9c0 .58.24.83.79.83.14 0 .38-.02.46-.03l.08-.01v1.21l-.05.01a3.678 3.678 0 0 1-.79.06c-1.39 0-1.96-.56-1.96-1.95v-4.02h-1.03v-1.21h1.03v-1.67h1.47v1.67h1.34zm4.61 5.94h-1.5l-2.6-7.14h1.56l1.79 5.54 1.79-5.54h1.54z" fill="#fff" fill-rule="evenodd"/></svg>