<svg xmlns="http://www.w3.org/2000/svg" viewBox="-1837 -1550 13.526 14"><defs><style>.cls-1{fill:#0070c9}</style></defs><g id="calendar" transform="translate(-1838 -1550)"><path id="Path_214" data-name="Path 214" class="cls-1" d="M36.847 35a2.847 2.847 0 1 0 2.847 2.847A2.851 2.851 0 0 0 36.847 35zm0 5.22a2.373 2.373 0 1 1 2.373-2.373 2.376 2.376 0 0 1-2.373 2.373z" transform="translate(-25.169 -26.695)"/><path id="Path_215" data-name="Path 215" class="cls-1" d="M46.661 41.424h-1.186v-1.187a.237.237 0 0 0-.475 0v1.424a.237.237 0 0 0 .237.237h1.424a.237.237 0 0 0 0-.475z" transform="translate(-33.559 -30.508)"/><path id="Path_216" data-name="Path 216" class="cls-1" d="M13.339 1.186A.237.237 0 0 0 13.1.949h-1.185V.237A.237.237 0 0 0 11.678 0h-1.661a.237.237 0 0 0-.237.237v.712H4.559V.237A.237.237 0 0 0 4.322 0H2.661a.237.237 0 0 0-.237.237v.712H1.237A.237.237 0 0 0 1 1.186v2.136h12.339zm-9.254 0V1.9H2.9V.475h1.185zm7.356 0V1.9h-1.187V.475h1.186z"/><path id="Path_217" data-name="Path 217" class="cls-1" d="M11.678 19.8a3.538 3.538 0 0 1 1.661.414v-3.977A.237.237 0 0 0 13.1 16H1.237a.237.237 0 0 0-.237.237v9.254a.237.237 0 0 0 .237.237h7.8a3.553 3.553 0 0 1 2.641-5.928zm-1.9-2.373h1.9v1.9H9.78zm-5.22 6.644h-1.9v-1.9h1.9zm0-2.373h-1.9V19.8h1.9zm0-2.373h-1.9v-1.9h1.9zm2.373 4.746h-1.9v-1.9h1.9zm0-2.373h-1.9V19.8h1.9zm0-2.373h-1.9v-1.9h1.9zm.475-1.9h1.9v1.9h-1.9z" transform="translate(0 -12.203)"/></g></svg>