<svg xmlns="http://www.w3.org/2000/svg" viewBox="-5477.75 -8495.262 13.5 15.012"><path data-name="Path 884" d="M-5474.762-8488.512h3.762v3.762h-3.762zm9 6.75v-8.227h-10.476v8.227zm0-11.988a1.449 1.449 0 0 1 1.055.457 1.449 1.449 0 0 1 .457 1.055v10.476a1.449 1.449 0 0 1-.457 1.055 1.449 1.449 0 0 1-1.055.457h-10.476a1.431 1.431 0 0 1-1.072-.457 1.477 1.477 0 0 1-.44-1.055v-10.476a1.477 1.477 0 0 1 .439-1.055 1.431 1.431 0 0 1 1.072-.457h.739v-1.512h1.512v1.512h5.976v-1.512h1.512v1.512z" fill="#0070C9"/></svg>