<svg xmlns="http://www.w3.org/2000/svg" viewBox="-530.056 -1296 24 24"><defs><style>.cls-1{fill:#757575}</style></defs><g id="Group_150" data-name="Group 150" transform="translate(-530.056 -1296)"><path id="Path_221" data-name="Path 221" class="cls-1" d="M22 0H2a2 2 0 0 0-2 2v20a2 2 0 0 0 2 2h9.2v-8H8v-4.8h3.2v-2A5.236 5.236 0 0 1 15.967 4H20.4v4.8h-4a.4.4 0 0 0-.4.4v2h4V16h-4v8h6a2 2 0 0 0 2-2V2a2 2 0 0 0-2-2z"/><path id="Path_222" data-name="Path 222" class="cls-1" d="M198.133 109.6h-4v-2.8a1.2 1.2 0 0 1 1.2-1.2h3.2v-3.2h-3.6a4.426 4.426 0 0 0-4 4.4v2.8h-3.2v3.2h3.2v8.8h3.2v-8.8h4z" transform="translate(-178.933 -97.6)"/></g></svg>