<svg xmlns="http://www.w3.org/2000/svg" viewBox="-639 -1296 24 24"><defs><style>.cls-1{fill:#757575}</style></defs><g id="Group_148" data-name="Group 148" transform="translate(-639 -1296)"><path id="Path_223" data-name="Path 223" class="cls-1" d="M142.133 136.533a5.6 5.6 0 1 0 5.6 5.6 5.606 5.606 0 0 0-5.6-5.6zm0 10a4.4 4.4 0 1 1 4.4-4.4 4.405 4.405 0 0 1-4.4 4.4z" transform="translate(-130.133 -130.133)"/><path id="Path_224" data-name="Path 224" class="cls-1" d="M182.8 179.2a3.6 3.6 0 1 0 3.6 3.6 3.6 3.6 0 0 0-3.6-3.6z" transform="translate(-170.8 -170.8)"/><path id="Path_225" data-name="Path 225" class="cls-1" d="M82.234 68.267H71.9a3.637 3.637 0 0 0-3.633 3.633v10.334a3.637 3.637 0 0 0 3.633 3.633h10.334a3.637 3.637 0 0 0 3.633-3.633V71.9a3.638 3.638 0 0 0-3.633-3.633zm-5.167 15.2a6.4 6.4 0 1 1 6.4-6.4 6.407 6.407 0 0 1-6.4 6.4zm6.4-11.6a1.2 1.2 0 1 1 1.2-1.2 1.2 1.2 0 0 1-1.2 1.2z" transform="translate(-65.067 -65.067)"/><path id="Path_226" data-name="Path 226" class="cls-1" d="M17.167 0H6.833A6.841 6.841 0 0 0 0 6.833v10.334A6.841 6.841 0 0 0 6.833 24h10.334A6.841 6.841 0 0 0 24 17.167V6.833A6.841 6.841 0 0 0 17.167 0zM21.6 17.167a4.438 4.438 0 0 1-4.433 4.433H6.833A4.438 4.438 0 0 1 2.4 17.167V6.833A4.438 4.438 0 0 1 6.833 2.4h10.334A4.438 4.438 0 0 1 21.6 6.833z"/></g></svg>