<svg xmlns="http://www.w3.org/2000/svg" viewBox="714 29 37.01 45"><path d="M727.99 71.13l-.04-1.12H715V39.99h13V36h-11.13a2.885 2.885 0 0 0-2.87 2.88v32.26a2.874 2.874 0 0 0 2.87 2.86h12.77a3.889 3.889 0 0 1-1.65-2.87zM722 38h3v.5h-3zm1.5 35.5A1.5 1.5 0 1 1 725 72a1.5 1.5 0 0 1-1.5 1.5zM747.65 29h-15.32a3.346 3.346 0 0 0-3.33 3.35v38.28a3.357 3.357 0 0 0 3.33 3.37h15.33a3.374 3.374 0 0 0 3.35-3.37V32.35a3.378 3.378 0 0 0-3.36-3.35zm-9.15 2.5h3v.5h-3zm1.5 41.75a1.75 1.75 0 1 1 1.75-1.75 1.746 1.746 0 0 1-1.75 1.75zM750 69h-20V34h20zm-10 3.5a1 1 0 1 1 1-1 1 1 0 0 1-1 1zm-16.5.38a.875.875 0 1 1 .88-.88.888.888 0 0 1-.88.88z" fill="#fff"/></svg>