<svg xmlns="http://www.w3.org/2000/svg" viewBox="-860 -10808 23.001 42.014"><path d="M-836.999-10788.993v-5h-1v-1.67a4.27 4.27 0 0 0-.59-2.16c-.4-.68-1.11-1.26-1.54-1.93a9.64 9.64 0 0 1-1.31-3c-.27-1.15-.19-2.34-.42-3.5a1.77 1.77 0 0 0-1.68-1.4c-.93-.13-1.87-.2-2.81-.26s-1.97-.08-2.95-.08a28.24 28.24 0 0 0-5.59.43 1.53 1.53 0 0 0-1.11 1.14c-.11.54-.2 1.86-.3 2.63a7.49 7.49 0 0 1-1.88 4.44l-.46.51a4.46 4.46 0 0 0-1.36 3.18v17.34a4.22 4.22 0 0 0 1.39 3.21 5.82 5.82 0 0 1 2.25 4.12c.18 1.16.05 2.33.28 3.46a1.63 1.63 0 0 0 1.26 1.11 33.669 33.669 0 0 0 6.07.43 28.24 28.24 0 0 0 5.59-.43 1.53 1.53 0 0 0 1.16-1.14c.11-.54-.14-3.17.79-4.76.33-.56 1.74-2.67 1.74-2.67s.16-.22.2-.26a4.52 4.52 0 0 0 1.27-3.07v-10.67zm-2 10.67a3.21 3.21 0 0 1-3 3.33h-14a3.2 3.2 0 0 1-3-3.33v-17.34a3.21 3.21 0 0 1 3-3.33h14a3.21 3.21 0 0 1 3 3.33z" fill="#fff"/></svg>