<svg xmlns="http://www.w3.org/2000/svg" viewBox="-942 -10798 21 32"><path d="M-924-10798h-15a2.861 2.861 0 0 0-3 3v26a2.861 2.861 0 0 0 3 3h15a2.862 2.862 0 0 0 3-3v-26a2.862 2.862 0 0 0-3-3zm-7.457 4.083a.734.734 0 0 1 .132-.2.7.7 0 0 1 .192-.146.543.543 0 0 1 .232-.062v.058a.566.566 0 0 1-.048.23.736.736 0 0 1-.129.2.652.652 0 0 1-.181.144.438.438 0 0 1-.206.054c-.028 0-.042 0-.045-.016v-.045a.53.53 0 0 1 .053-.217zm-1.215.851a.855.855 0 0 1 .159-.282.738.738 0 0 1 .239-.187.691.691 0 0 1 .3-.065.783.783 0 0 1 .276.065.741.741 0 0 0 .222.066.342.342 0 0 0 .077-.019l.166-.059a1.476 1.476 0 0 1 .166-.05.7.7 0 0 1 .466.068.662.662 0 0 1 .252.217.654.654 0 0 0-.248.241.683.683 0 0 0-.078.327.646.646 0 0 0 .108.36.671.671 0 0 0 .3.247 1.442 1.442 0 0 1-.092.219 2.22 2.22 0 0 1-.112.2c-.04.06-.078.112-.115.16a1.077 1.077 0 0 1-.092.1.488.488 0 0 1-.126.086.306.306 0 0 1-.134.031.456.456 0 0 1-.108-.018c-.043-.012-.086-.025-.13-.041s-.092-.028-.137-.04a.548.548 0 0 0-.122-.019.5.5 0 0 0-.132.021c-.047.013-.095.026-.142.042l-.132.039a.31.31 0 0 1-.1.019.263.263 0 0 1-.1-.019.34.34 0 0 1-.109-.06.883.883 0 0 1-.117-.117 2.038 2.038 0 0 1-.136-.182 1.449 1.449 0 0 1-.13-.222 1.958 1.958 0 0 1-.1-.251 1.827 1.827 0 0 1-.065-.262 1.547 1.547 0 0 1-.021-.254 1.042 1.042 0 0 1 .047-.361zM-928-10771a1.36 1.36 0 0 1-1.5 1.5h-4a1.359 1.359 0 0 1-1.5-1.5v-15a1.359 1.359 0 0 1 1.5-1.5h4a1.36 1.36 0 0 1 1.5 1.5zm-1.5-16h-4a.905.905 0 0 0-1 1v15a.9.9 0 0 0 1 1h4a.9.9 0 0 0 1-1v-15a.905.905 0 0 0-1-1z" fill="#fff"/></svg>