<svg xmlns="http://www.w3.org/2000/svg" viewBox="-1044 -10806 48 40"><path d="M-997.531-10806h-44.938a1.766 1.766 0 0 0-1.531 1.531l.042 29.938a1.766 1.766 0 0 0 1.53 1.531H-1023l-.89 4.119a2.811 2.811 0 0 1-2.927 2.188h-.069a.342.342 0 0 0-.1.669.152.152 0 0 0 .042.015h13.9v-.006a.124.124 0 0 0 .042-.015.341.341 0 0 0 .244-.323.345.345 0 0 0-.346-.346h-.069a2.811 2.811 0 0 1-2.928-2.188l-.899-4.113h19.469a1.767 1.767 0 0 0 1.531-1.531v-29.938a1.766 1.766 0 0 0-1.531-1.531zm-21.523 30.828a1.715 1.715 0 0 1-.093.167c-.034.052-.066.1-.1.136s-.059.066-.076.085a.549.549 0 0 1-.107.073.216.216 0 0 1-.111.026.306.306 0 0 1-.09-.016l-.109-.034-.112-.035a.413.413 0 0 0-.1-.015.361.361 0 0 0-.108.017c-.04.012-.079.023-.118.036l-.109.035a.3.3 0 0 1-.083.015.25.25 0 0 1-.088-.015.335.335 0 0 1-.09-.054.716.716 0 0 1-.1-.1 1.731 1.731 0 0 1-.116-.155 1.55 1.55 0 0 1-.107-.189 1.693 1.693 0 0 1-.083-.216 1.506 1.506 0 0 1-.046-.223 1.277 1.277 0 0 1-.021-.219.942.942 0 0 1 .048-.305.771.771 0 0 1 .134-.241.613.613 0 0 1 .2-.159.549.549 0 0 1 .246-.056.617.617 0 0 1 .231.056.559.559 0 0 0 .183.057.2.2 0 0 0 .064-.017c.032-.011.079-.027.138-.05s.1-.034.138-.042a.482.482 0 0 1 .107-.013.58.58 0 0 1 .28.071.544.544 0 0 1 .21.187.553.553 0 0 0-.208.205.59.59 0 0 0-.063.28.559.559 0 0 0 .089.308.552.552 0 0 0 .248.211 1.352 1.352 0 0 1-.078.189zm-.946-1.522a.458.458 0 0 1 .042-.188.638.638 0 0 1 .111-.173.584.584 0 0 1 .16-.125.469.469 0 0 1 .191-.054.085.085 0 0 1 0 .025v.027a.506.506 0 0 1-.041.195.615.615 0 0 1-.106.174.476.476 0 0 1-.151.123.349.349 0 0 1-.171.046c-.024 0-.036 0-.038-.014a.3.3 0 0 1 .003-.036zm22-2.306h-44v-25h44z" fill="#fff"/></svg>