<svg xmlns="http://www.w3.org/2000/svg" viewBox="-5734.488 -8494.012 14.977 12.023"><path data-name="Path 883" d="M-5724.328-8484.414l-.809-3.059 2.461-2.039-3.164-.175-1.16-2.954-1.16 2.953-3.2.176 2.5 2.039-.809 3.059 2.669-1.723zm3.779-4.641a1.477 1.477 0 0 0-.439 1.055 1.477 1.477 0 0 0 .439 1.055 1.392 1.392 0 0 0 1.037.457v2.988a1.477 1.477 0 0 1-.439 1.055 1.392 1.392 0 0 1-1.037.457h-12.024a1.392 1.392 0 0 1-1.037-.457 1.477 1.477 0 0 1-.439-1.055v-2.988a1.4 1.4 0 0 0 1.055-.439 1.49 1.49 0 0 0 .421-1.073 1.477 1.477 0 0 0-.439-1.055 1.392 1.392 0 0 0-1.037-.457v-2.988a1.477 1.477 0 0 1 .439-1.055 1.392 1.392 0 0 1 1.037-.457h12.024a1.392 1.392 0 0 1 1.037.457 1.477 1.477 0 0 1 .439 1.055v2.988a1.392 1.392 0 0 0-1.037.457z" fill="#fff"/></svg>