<svg xmlns="http://www.w3.org/2000/svg" viewBox="-1229.237 -8219 24 24"><path d="M-1213.506-8219a.4.4 0 0 0-.392.327l-.177.941a.605.605 0 0 1-.483.477 6.413 6.413 0 0 0-.669.177.607.607 0 0 1-.655-.172l-.62-.725a.4.4 0 0 0-.5-.084l-.463.267a.4.4 0 0 0-.178.48l.317.9a.606.606 0 0 1-.178.653 6.41 6.41 0 0 0-.489.489.607.607 0 0 1-.653.18l-.9-.319a.4.4 0 0 0-.478.178l-.269.464a.4.4 0 0 0 .086.5l.07.067a2 2 0 0 1 1.931 1.627l.048.255.167-.2a1.99 1.99 0 0 1 1.415-.682 4 4 0 1 1 5.539 5.538 1.989 1.989 0 0 1-.687 1.412l-.2.167.255.048a2 2 0 0 1 1.632 1.935l.067.078a.4.4 0 0 0 .5.086l.464-.269a.4.4 0 0 0 .178-.478l-.319-.9a.607.607 0 0 1 .18-.653 6.412 6.412 0 0 0 .489-.489.606.606 0 0 1 .653-.178l.9.317a.4.4 0 0 0 .48-.178l.267-.464a.4.4 0 0 0-.084-.5l-.725-.622a.607.607 0 0 1-.172-.655 6.386 6.386 0 0 0 .177-.667.607.607 0 0 1 .477-.483l.941-.178a.393.393 0 0 0 .327-.398v-.538a.4.4 0 0 0-.327-.392l-.941-.177a.605.605 0 0 1-.477-.483 6.414 6.414 0 0 0-.177-.669.607.607 0 0 1 .172-.655l.725-.62a.4.4 0 0 0 .084-.5l-.267-.462a.4.4 0 0 0-.48-.178l-.9.317a.606.606 0 0 1-.653-.178 6.411 6.411 0 0 0-.489-.489.607.607 0 0 1-.18-.653l.319-.9a.4.4 0 0 0-.178-.478l-.464-.276a.4.4 0 0 0-.5.086l-.62.725a.607.607 0 0 1-.655.172 6.415 6.415 0 0 0-.669-.177.609.609 0 0 1-.483-.478l-.181-.941a.4.4 0 0 0-.39-.325zm-7.2 6.4a.4.4 0 0 0-.392.325l-.148.791a.811.811 0 0 1-.652.637 7.062 7.062 0 0 0-.8.211.814.814 0 0 1-.881-.227l-.52-.608a.4.4 0 0 0-.5-.084l-.462.267a.4.4 0 0 0-.178.48l.269.761a.813.813 0 0 1-.244.877 7.323 7.323 0 0 0-.584.584.813.813 0 0 1-.877.244l-.763-.267a.4.4 0 0 0-.478.178l-.269.463a.4.4 0 0 0 .086.5l.608.52a.814.814 0 0 1 .227.881 7.062 7.062 0 0 0-.211.8.811.811 0 0 1-.638.652l-.791.148a.4.4 0 0 0-.333.398v.537a.4.4 0 0 0 .325.392l.791.148a.811.811 0 0 1 .638.652 7.018 7.018 0 0 0 .211.8.814.814 0 0 1-.227.881l-.608.52a.4.4 0 0 0-.084.5l.267.463a.4.4 0 0 0 .48.178l.761-.269a.813.813 0 0 1 .877.244 7.323 7.323 0 0 0 .584.584.813.813 0 0 1 .244.877l-.267.763a.4.4 0 0 0 .178.478l.462.269a.4.4 0 0 0 .5-.086l.52-.608a.814.814 0 0 1 .881-.227 7.061 7.061 0 0 0 .8.211.811.811 0 0 1 .652.638l.148.791a.4.4 0 0 0 .398.333h.537a.4.4 0 0 0 .391-.325l.148-.791a.811.811 0 0 1 .652-.638 7.019 7.019 0 0 0 .8-.211.814.814 0 0 1 .881.227l.52.608a.4.4 0 0 0 .5.086l.464-.269a.4.4 0 0 0 .178-.478l-.267-.762a.813.813 0 0 1 .244-.877 7.323 7.323 0 0 0 .584-.584.814.814 0 0 1 .877-.244l.763.267a.4.4 0 0 0 .478-.178l.269-.463a.4.4 0 0 0-.086-.5l-.608-.52a.814.814 0 0 1-.227-.881 7.061 7.061 0 0 0 .211-.8.811.811 0 0 1 .638-.652l.791-.148a.4.4 0 0 0 .327-.392v-.537a.4.4 0 0 0-.325-.391l-.791-.148a.813.813 0 0 1-.638-.653 7.062 7.062 0 0 0-.211-.8.812.812 0 0 1 .227-.88l.608-.52a.4.4 0 0 0 .086-.5l-.269-.464a.4.4 0 0 0-.478-.178l-.762.269a.813.813 0 0 1-.877-.244 7.323 7.323 0 0 0-.584-.584.813.813 0 0 1-.244-.877l.267-.763a.4.4 0 0 0-.178-.478l-.463-.269a.4.4 0 0 0-.5.086l-.52.608a.814.814 0 0 1-.881.227 7.061 7.061 0 0 0-.8-.211.811.811 0 0 1-.652-.638l-.148-.791a.4.4 0 0 0-.394-.339zm7.469.8a.8.8 0 1 0 .8.8.8.8 0 0 0-.8-.8zm-7.2 3.2a4.8 4.8 0 1 1-4.8 4.8 4.8 4.8 0 0 1 4.8-4.8zm0 3.2a1.6 1.6 0 1 0 1.6 1.6 1.6 1.6 0 0 0-1.6-1.6z" fill="#0070c9"/></svg>