<svg xmlns="http://www.w3.org/2000/svg" viewBox="-14757 -6350 14.425 14"><path d="M-14742.583-6338.952a.666.666 0 0 1-.214.6l-2.031 1.961a1.144 1.144 0 0 1-.359.25 1.559 1.559 0 0 1-.435.135.471.471 0 0 0-.1.01h-.2a6.775 6.775 0 0 1-.939-.1 7.005 7.005 0 0 1-1.588-.47 13.643 13.643 0 0 1-2.13-1.135 15.289 15.289 0 0 1-2.535-2.077 16.286 16.286 0 0 1-1.771-1.962 13.265 13.265 0 0 1-1.13-1.721 9.014 9.014 0 0 1-.641-1.442 7.3 7.3 0 0 1-.288-1.115 3.592 3.592 0 0 1-.062-.731c.011-.183.015-.279.015-.3a1.449 1.449 0 0 1 .138-.423 1.061 1.061 0 0 1 .26-.347l2.031-1.971a.664.664 0 0 1 .488-.211.564.564 0 0 1 .351.115.958.958 0 0 1 .26.27l1.635 3.009a.714.714 0 0 1 .076.519.935.935 0 0 1-.26.48l-.748.721a.3.3 0 0 0-.054.1.4.4 0 0 0-.023.116 2.76 2.76 0 0 0 .275.711 6 6 0 0 0 .565.865 9.141 9.141 0 0 0 1.084 1.182 10.024 10.024 0 0 0 1.222 1.058 6.982 6.982 0 0 0 .893.558 2.28 2.28 0 0 0 .549.212l.192.038a.679.679 0 0 0 .1-.019.368.368 0 0 0 .1-.048l.87-.865a.979.979 0 0 1 .641-.241.736.736 0 0 1 .412.1h.016l2.946 1.682a.779.779 0 0 1 .389.49z" fill="#0070c9" fill-rule="evenodd"/></svg>