<svg xmlns="http://www.w3.org/2000/svg" viewBox="-1285 -2037 16.002 16">
  <defs>
    <style>
      .cls-1 {
        fill: #fff;
      }
    </style>
  </defs>
  <path id="phone" class="cls-1" d="M15.83,12.138a8.962,8.962,0,0,0-2.755-2.4,1.644,1.644,0,0,0-.8-.231,1,1,0,0,0-.893.5,9.894,9.894,0,0,1-.769.851,1.279,1.279,0,0,1-1.867-.187L5.336,7.261a1.284,1.284,0,0,1-.187-1.866A9.992,9.992,0,0,1,6,4.625a.986.986,0,0,0,.459-.592,1.467,1.467,0,0,0-.193-1.107A8.958,8.958,0,0,0,3.866.174,1.463,1.463,0,0,0,2.147.433l-.753.753A4.114,4.114,0,0,0,.112,5.2,8.484,8.484,0,0,0,2.569,9.073l4.362,4.362c1.7,1.7,3.33,2.569,4.83,2.569h0a4.272,4.272,0,0,0,3.057-1.394l.753-.753A1.456,1.456,0,0,0,15.83,12.138Z" transform="translate(-1285 -2037.004)"/>
</svg>
