<svg xmlns="http://www.w3.org/2000/svg" viewBox="-584.528 -1293 24 19.541"><path data-name="Path 332" d="M-560.673-1290.828a.476.476 0 0 0-.49-.11l-.809.279a5.5 5.5 0 0 0 1.014-1.751.452.452 0 0 0-.606-.554c-1.135.476-2.139.89-2.938 1.138a.112.112 0 0 1-.091-.012 8.306 8.306 0 0 0-3.363-1.163 5.4 5.4 0 0 0-5.193 5.454v.162c-4.216-.816-6.546-2.029-9.069-4.676l-.394-.414-.262.508a5.427 5.427 0 0 0 1.2 6.622 3.1 3.1 0 0 1-1.654-.713.491.491 0 0 0-.59-.043.483.483 0 0 0-.207.542 7.94 7.94 0 0 0 3.5 4.406 3.354 3.354 0 0 1-1.95-.474.491.491 0 0 0-.73.576 4.854 4.854 0 0 0 4.43 3.454 10.055 10.055 0 0 1-5.108 1.287.558.558 0 0 0-.515.377.54.54 0 0 0 .174.6c1.455 1.173 4.72 1.874 8.733 1.874 7.183 0 13.027-6.392 13.027-14.249v-.138a4 4 0 0 0 2.014-2.5.473.473 0 0 0-.123-.482z" fill="#757575"/></svg>