<svg xmlns="http://www.w3.org/2000/svg" viewBox="-1568 -2037 12.267 16">
  <defs>
    <style>
      .cls-1 {
        fill: #fff;
      }
    </style>
  </defs>
  <path id="user" class="cls-1" d="M17.937,11.437,15.39,10.163A.7.7,0,0,1,15,9.533v-.9c.061-.075.125-.16.192-.254a6.1,6.1,0,0,0,.788-1.546,1.058,1.058,0,0,0,.621-.965V4.8a1.063,1.063,0,0,0-.267-.7V2.682a2.391,2.391,0,0,0-.558-1.74A3.356,3.356,0,0,0,13.133,0a3.357,3.357,0,0,0-2.642.941,2.391,2.391,0,0,0-.558,1.74V4.1a1.063,1.063,0,0,0-.267.7V5.867a1.06,1.06,0,0,0,.4.829A5.6,5.6,0,0,0,11,8.626v.882a.7.7,0,0,1-.367.619l-2.379,1.3A2.4,2.4,0,0,0,7,13.537V14.4c0,1.266,4.012,1.6,6.133,1.6s6.133-.334,6.133-1.6v-.811A2.393,2.393,0,0,0,17.937,11.437Z" transform="translate(-1575 -2037)"/>
</svg>
