<svg xmlns="http://www.w3.org/2000/svg" viewBox="-475.941 -1289.667 24 14.257"><path d="M-452.488-1288.7c.165-.557 0-.967-.793-.967h-2.624a1.127 1.127 0 0 0-1.141.744 21.988 21.988 0 0 1-3.226 5.369c-.61.61-.891.806-1.225.806-.165 0-.419-.2-.419-.753v-5.2c0-.668-.187-.967-.74-.967h-4.125a.633.633 0 0 0-.668.6c0 .633.945.78 1.043 2.562v3.867c0 .847-.151 1-.486 1-.891 0-3.056-3.27-4.34-7.013-.258-.721-.509-1.015-1.185-1.015h-2.624c-.748 0-.9.352-.9.744 0 .7.891 4.148 4.148 8.71 2.17 3.114 5.226 4.8 8.006 4.8 1.671 0 1.876-.374 1.876-1.02 0-2.976-.151-3.257.686-3.257.388 0 1.056.2 2.615 1.7 1.782 1.782 2.076 2.58 3.074 2.58h2.625c.748 0 1.127-.374.909-1.114-.5-1.555-3.872-4.754-4.023-4.968-.388-.5-.276-.722 0-1.167 0 0 3.208-4.513 3.538-6.041z" fill="#757575"/></svg>