<svg xmlns="http://www.w3.org/2000/svg" viewBox="-421.469 -1292.333 24 18.403"><defs><style>.cls-1{fill:#757575}</style></defs><g id="Group_149" data-name="Group 149" transform="translate(-421.469 -1292.333)"><path id="Path_228" data-name="Path 228" class="cls-1" d="M204.8 191.777l6.4-3.578-6.4-3.745z" transform="translate(-195.197 -178.605)"/><path id="Path_229" data-name="Path 229" class="cls-1" d="M23.766 63.863a.037.037 0 0 1 0-.006 5.992 5.992 0 0 0-1.019-2.7 3.446 3.446 0 0 0-2.439-1.173l-.153-.017c-3.224-.252-8.1-.28-8.161-.28-.049 0-4.922.028-8.163.282l-.135.015a3.442 3.442 0 0 0-2.435 1.169 6 6 0 0 0-1.027 2.71c0 .02-.234 2.069-.234 4.09v1.9c0 2.023.232 4.07.235 4.1a5.977 5.977 0 0 0 1.019 2.694A3.7 3.7 0 0 0 3.745 77.8c.11.014.207.026.325.048 1.853.192 7.678.251 7.93.253.049 0 4.927-.012 8.172-.263l.14-.016a3.448 3.448 0 0 0 2.428-1.17 6 6 0 0 0 1.025-2.7c0-.021.234-2.069.234-4.091v-1.9c.001-2.03-.231-4.078-.233-4.098zM17 69.641l-7.6 4.252a.4.4 0 0 1-.6-.349v-8.7a.4.4 0 0 1 .6-.345l7.6 4.45a.4.4 0 0 1-.007.694z" transform="translate(0 -59.69)"/></g></svg>