<svg xmlns="http://www.w3.org/2000/svg" viewBox="2683 -31.557 120.846 25.277"><g data-name="Group 671"><g data-name="Group 622"><g data-name="Group 621"><path data-name="Path 855" d="M2691.153-12.49a1.26 1.26 0 0 1 1.2-2.216 12.156 12.156 0 0 0 4.688 1.4 21.9 21.9 0 0 1 .569-3.957h-3.254v-1.262c0-3.8 2.591-10.379 3.705-13.032h-12.544A2.525 2.525 0 0 0 2683-29.04v20.242a2.525 2.525 0 0 0 2.517 2.517h12.522a16.9 16.9 0 0 1-.971-4.5 14.649 14.649 0 0 1-5.915-1.709zm-.483-12.242a1.082 1.082 0 1 1 2.164 0v1.573a1.082 1.082 0 0 1-2.164 0z" fill="#0b4ae0"/><path data-name="Path 856" d="M2710.693-31.557h-9.891c-.423.965-3.281 7.593-3.835 11.773h4.131l-.637 1.7a18.577 18.577 0 0 0-.889 4.735 12.123 12.123 0 0 0 4.524-1.485 1.259 1.259 0 1 1 1.245 2.188 14.624 14.624 0 0 1-5.744 1.825 14.072 14.072 0 0 0 .909 3.982 1.256 1.256 0 0 1 .08.56h10.106a2.525 2.525 0 0 0 2.517-2.517V-29.04a2.523 2.523 0 0 0-2.516-2.517zm-4.892 8.418a1.082 1.082 0 0 1-2.164 0v-1.574a1.082 1.082 0 0 1 2.164 0z" fill="#0070c9"/></g></g><path data-name="Path 872" d="M2724.637-11h3.976v-12.5h-3.976zm1.988-13.948c1.4 0 2.246-.708 2.246-1.763s-.842-1.774-2.246-1.774-2.235.708-2.235 1.774.842 1.763 2.235 1.763zM2742.426-11h4.492l-5.447-16.206h-5.042L2730.994-11h4.088l1.044-3.56h5.29zm-3.74-12.556h.213l1.741 6.031h-3.729zm9.914 3.819c0 1.965 1.224 3.189 3.706 3.717l2.325.494c1.002.214 1.369.494 1.369 1.026 0 .674-.708 1.112-1.8 1.112-1.168 0-1.875-.416-2.078-1.19h-3.822c.224 2.511 2.268 3.87 5.851 3.87 3.493 0 5.772-1.662 5.772-4.256 0-1.9-1.067-2.92-3.526-3.437l-2.583-.528c-.988-.213-1.437-.528-1.437-1.056 0-.674.719-1.123 1.752-1.123 1.078 0 1.741.438 1.853 1.168h3.618c-.146-2.516-2.044-3.852-5.5-3.852-3.374 0-5.5 1.573-5.5 4.055zm13.319 0c0 1.965 1.224 3.189 3.706 3.717l2.325.494c1 .213 1.37.494 1.37 1.022 0 .674-.708 1.112-1.8 1.112-1.168 0-1.875-.416-2.078-1.19h-3.83c.232 2.515 2.276 3.874 5.858 3.874 3.493 0 5.772-1.662 5.772-4.256 0-1.9-1.067-2.92-3.526-3.437l-2.583-.528c-.988-.213-1.433-.528-1.433-1.055 0-.674.719-1.123 1.752-1.123 1.078 0 1.741.438 1.853 1.168h3.612c-.146-2.516-2.044-3.852-5.5-3.852-3.372-.001-5.495 1.572-5.495 4.054zM2775.747-11h3.976v-12.5h-3.976zm1.988-13.948c1.4 0 2.246-.708 2.246-1.763s-.842-1.774-2.246-1.774-2.235.708-2.235 1.774.842 1.763 2.235 1.763zm4.818 5.211c0 1.965 1.224 3.189 3.706 3.717l2.325.494c1 .213 1.37.494 1.37 1.022 0 .674-.708 1.112-1.8 1.112-1.168 0-1.875-.416-2.078-1.19h-3.826c.224 2.515 2.268 3.874 5.85 3.874 3.493 0 5.772-1.662 5.772-4.256 0-1.9-1.067-2.92-3.526-3.437l-2.583-.528c-.988-.213-1.437-.528-1.437-1.056 0-.674.719-1.123 1.752-1.123 1.078 0 1.741.438 1.853 1.168h3.616c-.146-2.516-2.044-3.852-5.5-3.852-3.372 0-5.494 1.573-5.494 4.055zm14.813-6.626v3.032h-1.92v2.954h1.92v5.952c0 2.448 1.292 3.448 4.582 3.448a10.153 10.153 0 0 0 1.9-.157v-2.83a7.641 7.641 0 0 1-1 .056c-1.033 0-1.516-.46-1.516-1.4v-5.069h2.516v-2.954h-2.518v-3.032z" fill="#fff"/></g></svg>