<svg xmlns="http://www.w3.org/2000/svg" viewBox="2683 -31.557 30.209 25.277"><g data-name="Group 621"><path data-name="Path 855" d="M2691.153-12.49a1.26 1.26 0 0 1 1.2-2.216 12.156 12.156 0 0 0 4.688 1.4 21.9 21.9 0 0 1 .569-3.957h-3.254v-1.262c0-3.8 2.591-10.379 3.705-13.032h-12.544A2.525 2.525 0 0 0 2683-29.04v20.242a2.525 2.525 0 0 0 2.517 2.517h12.522a16.9 16.9 0 0 1-.971-4.5 14.649 14.649 0 0 1-5.915-1.709zm-.483-12.242a1.082 1.082 0 1 1 2.164 0v1.573a1.082 1.082 0 0 1-2.164 0z" fill="#0b4ae0"/><path data-name="Path 856" d="M2710.693-31.557h-9.891c-.423.965-3.281 7.593-3.835 11.773h4.131l-.637 1.7a18.577 18.577 0 0 0-.889 4.735 12.123 12.123 0 0 0 4.524-1.485 1.259 1.259 0 1 1 1.245 2.188 14.624 14.624 0 0 1-5.744 1.825 14.072 14.072 0 0 0 .909 3.982 1.256 1.256 0 0 1 .08.56h10.106a2.525 2.525 0 0 0 2.517-2.517V-29.04a2.523 2.523 0 0 0-2.516-2.517zm-4.892 8.418a1.082 1.082 0 0 1-2.164 0v-1.574a1.082 1.082 0 0 1 2.164 0z" fill="#0070c9"/></g></svg>